<?xml version="1.0" encoding="utf-8"?>
<!-- Generator: Adobe Illustrator 19.1.0, SVG Export Plug-In . SVG Version: 6.00 Build 0)  -->
<svg version="1.1" id="Layer_1" xmlns="http://www.w3.org/2000/svg" xmlns:xlink="http://www.w3.org/1999/xlink" x="0px" y="0px"
	 viewBox="-267 178 257 257" style="enable-background:new -267 178 257 257;" xml:space="preserve">
<style type="text/css">
	.st0{fill:#31383E;}
</style>
<g>
	<path class="st0" d="M-39.4,434.4c-65.7,0-131.3,0-197,0c-9.4-4.1-12-12.1-12-21.5c0-47.8,0-95.6,0-143.4c0-1.6,0.1-3.2,0.2-4.8
		c73.4,0,146.4,0,219.7,0c0,2.2,0,4.1,0,5.9c0,48.1-0.1,96.3,0.1,144.4C-28.3,424-31.6,430.2-39.4,434.4z M-234.3,318.9
		c13.5,0,26.4,0,39.5,0c0-13.3,0-26.3,0-39.2c-13.4,0-26.4,0-39.5,0C-234.3,292.9-234.3,305.7-234.3,318.9z M-144.4,279.7
		c-13.4,0-26.5,0-39.5,0c0,13.3,0,26.1,0,39.2c13.3,0,26.4,0,39.5,0C-144.4,305.7-144.4,292.9-144.4,279.7z M-83.1,279.5
		c0,13.5,0,26.4,0,39.3c13.4,0,26.4,0,39.3,0c0-13.3,0-26.2,0-39.3C-57,279.5-69.9,279.5-83.1,279.5z M-194.8,368.8
		c0-13.4,0-26.3,0-39.3c-13.3,0-26.3,0-39.4,0c0,13.2,0,26.1,0,39.3C-221,368.8-208.1,368.8-194.8,368.8z M-144.6,368.8
		c0-13.3,0-26.3,0-39.2c-13.4,0-26.4,0-39.3,0c0,13.3,0,26.2,0,39.2C-170.6,368.8-157.7,368.8-144.6,368.8z M-83.1,329.4
		c0,13.5,0,26.3,0,39.3c13.4,0,26.4,0,39.3,0c0-13.3,0-26.2,0-39.3C-57,329.4-69.9,329.4-83.1,329.4z M-234.2,418.9
		c13.5,0,26.5,0,39.4,0c0-13.3,0-26.2,0-39.2c-13.3,0-26.2,0-39.4,0C-234.2,392.8-234.2,405.7-234.2,418.9z M-184,419
		c13.5,0,26.4,0,39.5,0c0-13.2,0-26.1,0-39.3c-13.3,0-26.3,0-39.5,0C-184,392.9-184,405.8-184,419z M-94.1,419.1
		c0-13.4,0-26.4,0-39.5c-13.3,0-26.2,0-39.2,0c0,13.3,0,26.3,0,39.5C-120.2,419.1-107.4,419.1-94.1,419.1z M-83,379.5
		c0,13.5,0,26.5,0,39.4c13.3,0,26.3,0,39.1,0c0-13.4,0-26.4,0-39.4C-57,379.5-69.8,379.5-83,379.5z M-133.4,279.5
		c0,13.4,0,26.3,0,39.3c13.3,0,26.3,0,39.4,0c0-13.3,0-26.2,0-39.3C-107.2,279.5-120.1,279.5-133.4,279.5z M-133.3,329.5
		c0,13.5,0,26.4,0,39.3c13.3,0,26.2,0,39.3,0c0-13.3,0-26.2,0-39.3C-107.3,329.5-120.2,329.5-133.3,329.5z"/>
	<path class="st0" d="M-181.4,211.2c28.7,0,56.4,0,84.9,0c0-6.9,0-13.7,0-20.4c0.1-7.8,3.1-12.4,8.1-12.2c4.8,0.1,7.8,4.6,7.9,12
		c0.1,6.7,0,13.3,0,20.8c1.8,0,3.4,0,4.9,0c10,0,20-0.1,30,0c10.4,0.1,17.1,6.8,17.2,17.3c0.1,8.8,0,17.7-0.1,26.5
		c0,0.3-0.2,0.6-0.4,1.3c-72.9,0-145.9,0-219.8,0c0.5-10.9,0.4-21.7,1.6-32.4c0.7-7.7,7.8-12.6,16.1-12.7c11-0.1,21.9,0,33.7,0
		c0-6.5-0.1-12.8,0-19c0-2.5,0.1-5,0.7-7.4c0.9-3.7,3.3-6.3,7.3-6.3s6.4,2.7,7.3,6.4c0.6,2.7,0.6,5.6,0.6,8.4
		C-181.4,199.3-181.4,205.1-181.4,211.2z M-80.3,220.7c-0.6,6.6,0.5,14.7-7.8,15c-9.4,0.4-7.8-8.5-8.8-14.9
		c-6.9,5.5-7.7,14.2-2.2,20.4c5.1,5.9,15,6.1,20.5,0.5C-72.6,235.8-73.1,226.8-80.3,220.7z M-197.6,221c-5.6,3.8-7.3,9.5-5,15.8
		c2,5.6,8.2,9.5,14.1,9c6.8-0.6,11.8-5.2,12.9-11.8c1-5.9-1.2-10.6-5.7-12.5c-0.6,10.3-2.9,15-7.9,14.5
		C-198.2,235.1-197,227.4-197.6,221z"/>
</g>
</svg>
